<svg xmlns="http://www.w3.org/2000/svg" xmlns:xlink="http://www.w3.org/1999/xlink" width="247.321" height="39.295" viewBox="0 0 247.321 39.295"><defs><clipPath id="a"><rect width="247.321" height="39.295" fill="#fff"/></clipPath></defs><g transform="translate(-50.22 -283.55)"><g transform="translate(50.22 283.55)" clip-path="url(#a)"><path d="M291.489,312.339c0,1.157-.4,1.424-1.022,1.424s-1.024-.268-1.024-1.424V294.408c0-1.157.4-1.379,1.024-1.379s1.022.223,1.022,1.379Zm6.051-1.071V295.52c0-2.624-2.046-4.271-5.3-4.271s-5.293,1.647-5.293,4.271v15.748c0,2.626,2.046,4.273,5.293,4.273s5.3-1.647,5.3-4.273m-19.263-1.911c0,1.334-.49,1.557-1.024,1.557s-1.024-.223-1.024-1.557v-12.9c0-1.335.49-1.557,1.024-1.557s1.024.223,1.024,1.557Zm5.6,7.3V289.779H279.61v1.6a3.5,3.5,0,0,0-3.115-1.913,2.94,2.94,0,0,0-3.2,3.249v16.151c0,2.536,1.335,3.826,3.826,3.826a3.718,3.718,0,0,0,3.648-2.136v5.7c0,1.335-.49,1.557-1.022,1.557s-1.024-.223-1.024-1.557v-2.761h-5.428v3.159c0,2.624,2.046,4.271,5.293,4.271s5.3-1.647,5.3-4.271m-13.523-1.422V294.986c0-3.2-.045-5.518-3.961-5.518a3.7,3.7,0,0,0-3.6,2.27v-1.958h-3.025V313.9h5.606V295.3c0-.711.045-1.557,1.114-1.557.889,0,.934.844.934,1.557V315.23h2.937Zm-16.774-5.43a1.006,1.006,0,0,1-1.022,1.024.921.921,0,0,1-1.022-.844v-9.344c0-1.334.844-1.87,2.046-2.581V309.8Zm3.115,5.43V293.74c0-2.626-2.046-4.271-5.3-4.271s-5.3,1.647-5.3,4.271v4.226h3.07v-5.117c0-.891.313-1.6,1.024-1.6.666,0,.846.8.846,1.557v2.313c0,5.561-4.939,3.781-4.939,8.941V312.6A2.62,2.62,0,0,0,249,315.539c1.78,0,2.448-.58,3.337-2.048h.088a3.832,3.832,0,0,0,.268,1.735H256.7Zm-9.25-29.766v-1.913h-14.06V286.8h3.025V315.23h6.495V285.465Zm-17.974,7.169h-5.16v29.9h5.16ZM215.817,309.1h-2.048v-6.673c0-1.157.4-1.245,1.024-1.245s1.024.09,1.024,1.245Zm5.426,9.478v-4.893H215.1v5.027c0,1.377-.4,1.512-1.157,1.512s-1.069-.133-1.069-1.512v-7.433h8.365V301.045c0-2.626-2.046-4.271-5.3-4.271s-5.293,1.645-5.293,4.271v17.528c0,2.626,2.046,4.273,5.293,4.273s5.3-1.647,5.3-4.273m-17.929-2.27c0,1.335-.488,1.557-1.024,1.557s-1.024-.221-1.024-1.557V300.2c0-1.335.488-1.557,1.024-1.557s1.024.223,1.024,1.557Zm4.271,6.231V290.856H204.6v8.275a3.789,3.789,0,0,0-3.871-2.356c-2,0-3.738,1.067-3.738,3.6v19.308a2.933,2.933,0,0,0,3.2,3.159,3.425,3.425,0,0,0,3.116-1.958v1.647Zm-15.662-11.266v-5.827c0-6.051-9.123-5.205-9.123-10.946v-.934c0-1.335.49-1.557,1.024-1.557s1.024.223,1.024,1.557V297.3h7.075v-3.56c0-2.626-2.046-4.271-5.3-4.271s-5.3,1.647-5.3,4.271v5.829c0,5.516,6.852,4.359,6.852,9.431v3.2c0,1.335-.488,1.559-1.022,1.559s-1.024-.225-1.024-1.559V306.2h-4.807v5.072c0,2.626,2.048,4.273,5.3,4.273s5.3-1.649,5.3-4.275M175.371,309.8a1,1,0,0,1-1.022,1.024.923.923,0,0,1-1.024-.844v-9.344c0-1.334.846-1.87,2.046-2.581Zm3.115,5.43V293.74c0-2.626-2.046-4.271-5.3-4.271s-5.3,1.647-5.3,4.271v4.226h3.07v-5.117c0-.891.311-1.6,1.022-1.6.668,0,.846.8.846,1.557v2.313c0,5.561-4.939,3.781-4.939,8.941V312.6a2.62,2.62,0,0,0,2.892,2.939c1.78,0,2.448-.58,3.337-2.048h.09a3.858,3.858,0,0,0,.266,1.735h4.007Zm-13.3-4.629v-8.855H159.8v8.5c0,.8-.133,1.559-.934,1.559-.889,0-1.069-.668-1.069-1.559V293.427h4.627V289.6h-4.582v-4.848h-2.313v4.4H153.4v5.162h2.136v17c0,2.759,1.913,4.226,4.627,4.226a4.92,4.92,0,0,0,5.027-4.939m-14.283.666v-5.827c0-6.051-9.121-5.205-9.121-10.946v-.934c0-1.335.49-1.557,1.024-1.557s1.024.223,1.024,1.557V297.3H150.9v-3.56c0-2.626-2.046-4.271-5.3-4.271s-5.3,1.647-5.3,4.271v5.829c0,5.516,6.852,4.359,6.852,9.431v3.2c0,1.335-.49,1.559-1.024,1.559s-1.024-.225-1.024-1.559V306.2h-4.8v5.072c0,2.626,2.048,4.273,5.3,4.273s5.293-1.649,5.293-4.275m-16.55-1.467a1.007,1.007,0,0,1-1.024,1.024.923.923,0,0,1-1.024-.844v-9.344c0-1.334.846-1.87,2.046-2.581V309.8Zm3.115,5.43V293.74c0-2.626-2.048-4.271-5.3-4.271s-5.3,1.647-5.3,4.271v4.226h3.07v-5.117c0-.891.313-1.6,1.024-1.6.668,0,.846.8.846,1.557v2.313c0,5.561-4.937,3.781-4.937,8.941V312.6a2.62,2.62,0,0,0,2.892,2.939c1.78,0,2.448-.58,3.337-2.048h.09a3.858,3.858,0,0,0,.266,1.735h4Zm-13.66-22.87h-4.715v22.868h4.715Zm-.889-8.808h-3.828v6.229h3.826v-6.229Zm-6.809,27.716v-5.827c0-6.051-9.121-5.205-9.121-10.946v-.934c0-1.335.488-1.557,1.024-1.557s1.022.223,1.022,1.557V297.3h7.075v-3.56c0-2.626-2.046-4.271-5.3-4.271s-5.3,1.647-5.3,4.271v5.829c0,5.516,6.852,4.359,6.852,9.431v3.2c0,1.335-.49,1.559-1.024,1.559s-1.024-.225-1.024-1.559V306.2h-4.8v5.072c0,2.626,2.046,4.273,5.3,4.273s5.3-1.649,5.3-4.275m-13.57,3.962V291.559H99.38v19.222c0,.711-.043,1.557-1.112,1.557-.889,0-.934-.844-.934-1.557v-21H91.506v21.176c0,2.669.045,4.584,3.292,4.584a3.315,3.315,0,0,0,3.025-1.958v1.647h4.717ZM88.792,310.6v-8.855H83.409v8.5c0,.8-.133,1.559-.934,1.559-.891,0-1.069-.668-1.069-1.559V293.427h4.627V289.6H81.451v-4.848H79.138v4.4H77v5.162h2.136v17c0,2.759,1.913,4.226,4.627,4.226a4.919,4.919,0,0,0,5.027-4.939M74.423,315.23V294.986c0-3.2-.045-5.518-3.961-5.518a3.7,3.7,0,0,0-3.6,2.27v-1.958H63.835V313.9H69.44V295.3c0-.711.045-1.557,1.112-1.557.889,0,.934.844.934,1.557V315.23h2.937Zm-13.615,0v-4.138H52.4V299.969h8.1V295.83H54.935v-9.789h5.784V283.55H50.22v31.679H60.808Z" transform="translate(-50.22 -283.55)" fill="#fff"/></g></g></svg>